<mxfile host="Electron" modified="2023-07-24T23:45:16.408Z" agent="Mozilla/5.0 (Windows NT 10.0; Win64; x64) AppleWebKit/537.36 (KHTML, like Gecko) draw.io/21.6.5 Chrome/114.0.5735.243 Electron/25.3.1 Safari/537.36" etag="yNxn6mMmYJl01uY7NCaI" version="21.6.5" type="device">
  <diagram name="Page-1" id="GcQAFc7T_E8WWP9-CP-i">
    <mxGraphModel dx="1674" dy="836" grid="1" gridSize="10" guides="1" tooltips="1" connect="1" arrows="1" fold="1" page="1" pageScale="1" pageWidth="827" pageHeight="1169" math="0" shadow="0">
      <root>
        <mxCell id="0" />
        <mxCell id="1" parent="0" />
        <mxCell id="8R2meNSlnnWfXJwPKQnz-1" value="" style="strokeWidth=1;shadow=0;dashed=0;align=center;html=1;shape=mxgraph.mockup.containers.browserWindow;rSize=0;strokeColor=#666666;strokeColor2=#008cff;strokeColor3=#c4c4c4;mainText=,;recursiveResize=0;" vertex="1" parent="1">
          <mxGeometry x="40" y="120" width="920" height="620" as="geometry" />
        </mxCell>
        <mxCell id="8R2meNSlnnWfXJwPKQnz-2" value="Page 1" style="strokeWidth=1;shadow=0;dashed=0;align=center;html=1;shape=mxgraph.mockup.containers.anchor;fontSize=17;fontColor=#666666;align=left;whiteSpace=wrap;" vertex="1" parent="8R2meNSlnnWfXJwPKQnz-1">
          <mxGeometry x="60" y="12" width="110" height="26" as="geometry" />
        </mxCell>
        <mxCell id="8R2meNSlnnWfXJwPKQnz-3" value="https://www.Main.php#services" style="strokeWidth=1;shadow=0;dashed=0;align=center;html=1;shape=mxgraph.mockup.containers.anchor;rSize=0;fontSize=17;fontColor=#666666;align=left;" vertex="1" parent="8R2meNSlnnWfXJwPKQnz-1">
          <mxGeometry x="130" y="60" width="250" height="26" as="geometry" />
        </mxCell>
        <mxCell id="8R2meNSlnnWfXJwPKQnz-11" value="Signature Cuisine" style="strokeWidth=1;shadow=0;dashed=0;align=center;html=1;shape=mxgraph.mockup.text.textBox;fontColor=#666666;align=left;fontSize=17;spacingLeft=4;spacingTop=-3;whiteSpace=wrap;strokeColor=#666666;mainText=" vertex="1" parent="8R2meNSlnnWfXJwPKQnz-1">
          <mxGeometry x="30" y="140" width="280" height="30" as="geometry" />
        </mxCell>
        <mxCell id="8R2meNSlnnWfXJwPKQnz-13" value="Order" style="strokeWidth=1;shadow=0;dashed=0;align=center;html=1;shape=mxgraph.mockup.text.textBox;fontColor=#666666;align=left;fontSize=17;spacingLeft=4;spacingTop=-3;whiteSpace=wrap;strokeColor=#666666;mainText=" vertex="1" parent="8R2meNSlnnWfXJwPKQnz-1">
          <mxGeometry x="429.38" y="220" width="61.25" height="30" as="geometry" />
        </mxCell>
        <mxCell id="8R2meNSlnnWfXJwPKQnz-22" value="" style="group" vertex="1" connectable="0" parent="8R2meNSlnnWfXJwPKQnz-1">
          <mxGeometry x="310" y="140" width="580" height="30" as="geometry" />
        </mxCell>
        <mxCell id="8R2meNSlnnWfXJwPKQnz-4" value="" style="strokeWidth=1;shadow=0;dashed=0;align=center;html=1;shape=mxgraph.mockup.forms.rrect;rSize=0;strokeColor=#999999;" vertex="1" parent="8R2meNSlnnWfXJwPKQnz-22">
          <mxGeometry width="498" height="30" as="geometry" />
        </mxCell>
        <mxCell id="8R2meNSlnnWfXJwPKQnz-5" value="Home" style="strokeColor=inherit;fillColor=inherit;gradientColor=inherit;strokeWidth=1;shadow=0;dashed=0;align=center;html=1;shape=mxgraph.mockup.forms.rrect;rSize=0;fontSize=17;fontColor=#666666;whiteSpace=wrap;" vertex="1" parent="8R2meNSlnnWfXJwPKQnz-4">
          <mxGeometry width="83" height="30" as="geometry" />
        </mxCell>
        <mxCell id="8R2meNSlnnWfXJwPKQnz-6" value="About" style="strokeColor=inherit;fillColor=inherit;gradientColor=inherit;strokeWidth=1;shadow=0;dashed=0;align=center;html=1;shape=mxgraph.mockup.forms.rrect;rSize=0;fontSize=17;fontColor=#666666;whiteSpace=wrap;" vertex="1" parent="8R2meNSlnnWfXJwPKQnz-4">
          <mxGeometry x="83" width="83" height="30" as="geometry" />
        </mxCell>
        <mxCell id="8R2meNSlnnWfXJwPKQnz-7" value="Staff Mem" style="strokeColor=inherit;fillColor=inherit;gradientColor=inherit;strokeWidth=1;shadow=0;dashed=0;align=center;html=1;shape=mxgraph.mockup.forms.rrect;rSize=0;fontSize=17;fontColor=#666666;whiteSpace=wrap;" vertex="1" parent="8R2meNSlnnWfXJwPKQnz-4">
          <mxGeometry x="166" width="83" height="30" as="geometry" />
        </mxCell>
        <mxCell id="8R2meNSlnnWfXJwPKQnz-8" value="Services" style="strokeColor=inherit;fillColor=inherit;gradientColor=inherit;strokeWidth=1;shadow=0;dashed=0;align=center;html=1;shape=mxgraph.mockup.forms.rrect;rSize=0;fontSize=17;fontColor=#666666;whiteSpace=wrap;" vertex="1" parent="8R2meNSlnnWfXJwPKQnz-4">
          <mxGeometry x="249" width="83" height="30" as="geometry" />
        </mxCell>
        <mxCell id="8R2meNSlnnWfXJwPKQnz-9" value="Order" style="strokeColor=inherit;fillColor=inherit;gradientColor=inherit;strokeWidth=1;shadow=0;dashed=0;align=center;html=1;shape=mxgraph.mockup.forms.rrect;rSize=0;fontSize=17;fontColor=#666666;whiteSpace=wrap;" vertex="1" parent="8R2meNSlnnWfXJwPKQnz-4">
          <mxGeometry x="332" width="83" height="30" as="geometry" />
        </mxCell>
        <mxCell id="8R2meNSlnnWfXJwPKQnz-10" value="Review" style="strokeColor=inherit;fillColor=inherit;gradientColor=inherit;strokeWidth=1;shadow=0;dashed=0;align=center;html=1;shape=mxgraph.mockup.forms.rrect;rSize=0;fontSize=17;fontColor=#666666;whiteSpace=wrap;" vertex="1" parent="8R2meNSlnnWfXJwPKQnz-4">
          <mxGeometry x="415" width="83" height="30" as="geometry" />
        </mxCell>
        <mxCell id="8R2meNSlnnWfXJwPKQnz-21" value="Contact" style="strokeWidth=1;shadow=0;dashed=0;align=center;html=1;shape=mxgraph.mockup.text.textBox;fontColor=#666666;align=left;fontSize=17;spacingLeft=4;spacingTop=-3;whiteSpace=wrap;strokeColor=#666666;mainText=" vertex="1" parent="8R2meNSlnnWfXJwPKQnz-22">
          <mxGeometry x="498" width="82" height="30" as="geometry" />
        </mxCell>
        <mxCell id="8R2meNSlnnWfXJwPKQnz-37" value="" style="group" vertex="1" connectable="0" parent="8R2meNSlnnWfXJwPKQnz-1">
          <mxGeometry x="50" y="280" width="200" height="270" as="geometry" />
        </mxCell>
        <mxCell id="8R2meNSlnnWfXJwPKQnz-35" value="" style="verticalLabelPosition=bottom;shadow=0;dashed=0;align=center;html=1;verticalAlign=top;strokeWidth=1;shape=mxgraph.mockup.graphics.simpleIcon;strokeColor=#999999;" vertex="1" parent="8R2meNSlnnWfXJwPKQnz-37">
          <mxGeometry width="200" height="270" as="geometry" />
        </mxCell>
        <mxCell id="8R2meNSlnnWfXJwPKQnz-36" value="" style="group" vertex="1" connectable="0" parent="8R2meNSlnnWfXJwPKQnz-37">
          <mxGeometry x="25" y="42.5" width="150" height="185" as="geometry" />
        </mxCell>
        <mxCell id="8R2meNSlnnWfXJwPKQnz-31" value="********" style="strokeWidth=1;shadow=0;dashed=0;align=center;html=1;shape=mxgraph.mockup.forms.pwField;strokeColor=#999999;mainText=;align=left;fontColor=#666666;fontSize=17;spacingLeft=3;" vertex="1" parent="8R2meNSlnnWfXJwPKQnz-36">
          <mxGeometry y="110" width="150" height="30" as="geometry" />
        </mxCell>
        <mxCell id="8R2meNSlnnWfXJwPKQnz-32" value="Customer Login" style="text;html=1;align=center;verticalAlign=middle;resizable=0;points=[];autosize=1;strokeColor=none;fillColor=none;" vertex="1" parent="8R2meNSlnnWfXJwPKQnz-36">
          <mxGeometry x="20" width="110" height="30" as="geometry" />
        </mxCell>
        <mxCell id="8R2meNSlnnWfXJwPKQnz-30" value="Username" style="strokeWidth=1;shadow=0;dashed=0;align=center;html=1;shape=mxgraph.mockup.text.textBox;fontColor=#666666;align=left;fontSize=17;spacingLeft=4;spacingTop=-3;whiteSpace=wrap;strokeColor=#666666;mainText=" vertex="1" parent="8R2meNSlnnWfXJwPKQnz-36">
          <mxGeometry y="50" width="150" height="30" as="geometry" />
        </mxCell>
        <mxCell id="8R2meNSlnnWfXJwPKQnz-34" value="Login" style="strokeWidth=1;shadow=0;dashed=0;align=center;html=1;shape=mxgraph.mockup.buttons.button;strokeColor=#666666;fontColor=#ffffff;mainText=;buttonStyle=round;fontSize=17;fontStyle=1;fillColor=#008cff;whiteSpace=wrap;" vertex="1" parent="8R2meNSlnnWfXJwPKQnz-36">
          <mxGeometry x="40" y="170" width="70" height="15" as="geometry" />
        </mxCell>
        <mxCell id="8R2meNSlnnWfXJwPKQnz-38" value="" style="group" vertex="1" connectable="0" parent="8R2meNSlnnWfXJwPKQnz-1">
          <mxGeometry x="360.01" y="280" width="200" height="270" as="geometry" />
        </mxCell>
        <mxCell id="8R2meNSlnnWfXJwPKQnz-39" value="" style="verticalLabelPosition=bottom;shadow=0;dashed=0;align=center;html=1;verticalAlign=top;strokeWidth=1;shape=mxgraph.mockup.graphics.simpleIcon;strokeColor=#999999;" vertex="1" parent="8R2meNSlnnWfXJwPKQnz-38">
          <mxGeometry width="200" height="270" as="geometry" />
        </mxCell>
        <mxCell id="8R2meNSlnnWfXJwPKQnz-40" value="" style="group" vertex="1" connectable="0" parent="8R2meNSlnnWfXJwPKQnz-38">
          <mxGeometry x="25" y="42.5" width="150" height="185" as="geometry" />
        </mxCell>
        <mxCell id="8R2meNSlnnWfXJwPKQnz-41" value="********" style="strokeWidth=1;shadow=0;dashed=0;align=center;html=1;shape=mxgraph.mockup.forms.pwField;strokeColor=#999999;mainText=;align=left;fontColor=#666666;fontSize=17;spacingLeft=3;" vertex="1" parent="8R2meNSlnnWfXJwPKQnz-40">
          <mxGeometry y="110" width="150" height="30" as="geometry" />
        </mxCell>
        <mxCell id="8R2meNSlnnWfXJwPKQnz-42" value="Staff Login" style="text;html=1;align=center;verticalAlign=middle;resizable=0;points=[];autosize=1;strokeColor=none;fillColor=none;" vertex="1" parent="8R2meNSlnnWfXJwPKQnz-40">
          <mxGeometry x="35" width="80" height="30" as="geometry" />
        </mxCell>
        <mxCell id="8R2meNSlnnWfXJwPKQnz-43" value="Username" style="strokeWidth=1;shadow=0;dashed=0;align=center;html=1;shape=mxgraph.mockup.text.textBox;fontColor=#666666;align=left;fontSize=17;spacingLeft=4;spacingTop=-3;whiteSpace=wrap;strokeColor=#666666;mainText=" vertex="1" parent="8R2meNSlnnWfXJwPKQnz-40">
          <mxGeometry y="50" width="150" height="30" as="geometry" />
        </mxCell>
        <mxCell id="8R2meNSlnnWfXJwPKQnz-44" value="Login" style="strokeWidth=1;shadow=0;dashed=0;align=center;html=1;shape=mxgraph.mockup.buttons.button;strokeColor=#666666;fontColor=#ffffff;mainText=;buttonStyle=round;fontSize=17;fontStyle=1;fillColor=#008cff;whiteSpace=wrap;" vertex="1" parent="8R2meNSlnnWfXJwPKQnz-40">
          <mxGeometry x="40" y="170" width="70" height="15" as="geometry" />
        </mxCell>
        <mxCell id="8R2meNSlnnWfXJwPKQnz-45" value="" style="group" vertex="1" connectable="0" parent="8R2meNSlnnWfXJwPKQnz-1">
          <mxGeometry x="680" y="280" width="200" height="270" as="geometry" />
        </mxCell>
        <mxCell id="8R2meNSlnnWfXJwPKQnz-46" value="" style="verticalLabelPosition=bottom;shadow=0;dashed=0;align=center;html=1;verticalAlign=top;strokeWidth=1;shape=mxgraph.mockup.graphics.simpleIcon;strokeColor=#999999;" vertex="1" parent="8R2meNSlnnWfXJwPKQnz-45">
          <mxGeometry width="200" height="270" as="geometry" />
        </mxCell>
        <mxCell id="8R2meNSlnnWfXJwPKQnz-47" value="" style="group" vertex="1" connectable="0" parent="8R2meNSlnnWfXJwPKQnz-45">
          <mxGeometry x="25" y="42.5" width="150" height="185" as="geometry" />
        </mxCell>
        <mxCell id="8R2meNSlnnWfXJwPKQnz-48" value="********" style="strokeWidth=1;shadow=0;dashed=0;align=center;html=1;shape=mxgraph.mockup.forms.pwField;strokeColor=#999999;mainText=;align=left;fontColor=#666666;fontSize=17;spacingLeft=3;" vertex="1" parent="8R2meNSlnnWfXJwPKQnz-47">
          <mxGeometry y="110" width="150" height="30" as="geometry" />
        </mxCell>
        <mxCell id="8R2meNSlnnWfXJwPKQnz-49" value="Admin Login" style="text;html=1;align=center;verticalAlign=middle;resizable=0;points=[];autosize=1;strokeColor=none;fillColor=none;" vertex="1" parent="8R2meNSlnnWfXJwPKQnz-47">
          <mxGeometry x="30" width="90" height="30" as="geometry" />
        </mxCell>
        <mxCell id="8R2meNSlnnWfXJwPKQnz-50" value="Username" style="strokeWidth=1;shadow=0;dashed=0;align=center;html=1;shape=mxgraph.mockup.text.textBox;fontColor=#666666;align=left;fontSize=17;spacingLeft=4;spacingTop=-3;whiteSpace=wrap;strokeColor=#666666;mainText=" vertex="1" parent="8R2meNSlnnWfXJwPKQnz-47">
          <mxGeometry y="50" width="150" height="30" as="geometry" />
        </mxCell>
        <mxCell id="8R2meNSlnnWfXJwPKQnz-51" value="Login" style="strokeWidth=1;shadow=0;dashed=0;align=center;html=1;shape=mxgraph.mockup.buttons.button;strokeColor=#666666;fontColor=#ffffff;mainText=;buttonStyle=round;fontSize=17;fontStyle=1;fillColor=#008cff;whiteSpace=wrap;" vertex="1" parent="8R2meNSlnnWfXJwPKQnz-47">
          <mxGeometry x="40" y="170" width="70" height="15" as="geometry" />
        </mxCell>
      </root>
    </mxGraphModel>
  </diagram>
</mxfile>
